<svg xmlns="http://www.w3.org/2000/svg" xmlns:xlink="http://www.w3.org/1999/xlink" version="1.1" viewBox="4862 -694 2096 1150" width="2096px" height="1150px"><defs><style>@font-face{
    font-family:"DIN Next";
    font-weight: 400;
    src:url("https://whimsical.com/fonts/139e8e25-0eea-4cb4-a5d4-79048803e73d.eot?#iefix");
    src:url("https://whimsical.com/fonts/139e8e25-0eea-4cb4-a5d4-79048803e73d.eot?#iefix") format("eot"),url("https://whimsical.com/fonts/094b15e3-94bd-435b-a595-d40edfde661a.woff2") format("woff2"),url("https://whimsical.com/fonts/7e5fbe11-4858-4bd1-9ec6-a1d9f9d227aa.woff") format("woff"),url("https://whimsical.com/fonts/0f11eff9-9f05-46f5-9703-027c510065d7.ttf") format("truetype"),url("https://whimsical.com/fonts/48b61978-3f30-4274-823c-5cdcd1876918.svg#48b61978-3f30-4274-823c-5cdcd1876918") format("svg");
}
@font-face{
    font-family:"DIN Next";
    font-weight: 400;
    font-style: italic;
    src:url("https://whimsical.com/fonts/df24d5e8-5087-42fd-99b1-b16042d666c8.eot?#iefix");
    src:url("https://whimsical.com/fonts/df24d5e8-5087-42fd-99b1-b16042d666c8.eot?#iefix") format("eot"),url("https://whimsical.com/fonts/46251881-ffe9-4bfb-99c7-d6ce3bebaf3e.woff2") format("woff2"),url("https://whimsical.com/fonts/790ebbf2-62c5-4a32-946f-99d405f9243e.woff") format("woff"),url("https://whimsical.com/fonts/d28199e6-0f4a-42df-97f4-606701c6f75a.ttf") format("truetype"),url("https://whimsical.com/fonts/37a462c0-d86e-492c-b9ab-35e6bd417f6c.svg#37a462c0-d86e-492c-b9ab-35e6bd417f6c") format("svg");
}
@font-face{
    font-weight: 500;
    font-family:"DIN Next";
    src:url("https://whimsical.com/fonts/c5b058fc-55ce-4e06-a175-5c7d9a7e90f4.eot?#iefix");
    src:url("https://whimsical.com/fonts/c5b058fc-55ce-4e06-a175-5c7d9a7e90f4.eot?#iefix") format("eot"),url("https://whimsical.com/fonts/7b29ae40-30ff-4f99-a2b9-cde88669fa2f.woff2") format("woff2"),url("https://whimsical.com/fonts/bf73077c-e354-4562-a085-f4703eb1d653.woff") format("woff"),url("https://whimsical.com/fonts/0ffa6947-5317-4d07-b525-14d08a028821.ttf") format("truetype"),url("https://whimsical.com/fonts/9e423e45-5450-4991-a157-dbe6cf61eb4e.svg#9e423e45-5450-4991-a157-dbe6cf61eb4e") format("svg");
}
@font-face{
    font-family:"DIN Next";
    font-weight: 500;
    font-style: italic;
    src:url("https://whimsical.com/fonts/9897c008-fd65-48a4-afc7-36de2fea97b9.eot?#iefix");
    src:url("https://whimsical.com/fonts/9897c008-fd65-48a4-afc7-36de2fea97b9.eot?#iefix") format("eot"),url("https://whimsical.com/fonts/c7717981-647d-4b76-8817-33062e42d11f.woff2") format("woff2"),url("https://whimsical.com/fonts/b852cd4c-1255-40b1-a2be-73a9105b0155.woff") format("woff"),url("https://whimsical.com/fonts/821b00ad-e741-4e2d-af1a-85594367c8a2.ttf") format("truetype"),url("https://whimsical.com/fonts/d3e3b689-a6b0-45f2-b279-f5e194f87409.svg#d3e3b689-a6b0-45f2-b279-f5e194f87409") format("svg");
}
@font-face{
    font-weight: 700;
    font-family:"DIN Next";
    src:url("https://whimsical.com/fonts/81cd3b08-fd39-4ae3-8d05-9d24709eba84.eot?#iefix");
    src:url("https://whimsical.com/fonts/81cd3b08-fd39-4ae3-8d05-9d24709eba84.eot?#iefix") format("eot"),url("https://whimsical.com/fonts/31704504-4671-47a6-a61e-397f07410d91.woff2") format("woff2"),url("https://whimsical.com/fonts/b8a280da-481f-44a0-8d9c-1bc64bd7227c.woff") format("woff"),url("https://whimsical.com/fonts/276d122a-0fab-447b-9fc0-5d7fb0eafce2.ttf") format("truetype"),url("https://whimsical.com/fonts/8fb8273a-8213-4928-808b-b5bfaf3fd7e9.svg#8fb8273a-8213-4928-808b-b5bfaf3fd7e9") format("svg");
}
@font-face{
    font-family:"DIN Next";
    font-weight: 700;
    font-style: italic;
    src:url("https://whimsical.com/fonts/00cc6df3-ed32-4004-8dd8-1c576600a408.eot?#iefix");
    src:url("https://whimsical.com/fonts/00cc6df3-ed32-4004-8dd8-1c576600a408.eot?#iefix") format("eot"),url("https://whimsical.com/fonts/4132c4c8-680c-4d6d-9251-a2da38503bbd.woff2") format("woff2"),url("https://whimsical.com/fonts/366401fe-6df4-47be-8f55-8a411cff0dd2.woff") format("woff"),url("https://whimsical.com/fonts/dbe4f7ba-fc16-44a6-a577-571620e9edaf.ttf") format("truetype"),url("https://whimsical.com/fonts/f874edca-ee87-4ccf-8b1d-921fbc3c1c36.svg#f874edca-ee87-4ccf-8b1d-921fbc3c1c36") format("svg");
}

@font-face {
    font-family: 'PFDINMonoPro';
    src:url('https://whimsical.com/fonts/PFDINMonoPro-Regular.woff') format('woff');
    font-weight: 400;
}
@font-face {
    font-family: 'PFDINMonoPro';
    src:url('https://whimsical.com/fonts/PFDINMonoPro-Italic.woff') format('woff');
    font-style: italic;
    font-weight: 400;
}
@font-face {
    font-family: 'PFDINMonoPro';
    src:url('https://whimsical.com/fonts/PFDINMonoPro-Bold.woff') format('woff');
    font-weight: 700;
}
@font-face {
    font-family: 'PFDINMonoPro';
    src:url('https://whimsical.com/fonts/PFDINMonoPro-BoldItalic.woff') format('woff');
    font-style: italic;
    font-weight: 700;
}
* {-webkit-font-smoothing: auto; -moz-osx-font-smoothing: auto;}@media print { svg { width: 100%; height: 100%; } }</style><filter id="fill-shadow" x="-100%" y="-100%" width="300%" height="300%"><feGaussianBlur in="SourceAlpha" stdDeviation="6"></feGaussianBlur><feOffset result="offsetblur" dx="0" dy="2"></feOffset><feComponentTransfer result="s0"><feFuncA type="linear" slope="0.16"></feFuncA></feComponentTransfer><feMerge><feMergeNode in="s0"></feMergeNode><feMergeNode in="SourceGraphic"></feMergeNode></feMerge></filter><filter id="fill-light-shadow" x="-100%" y="-100%" width="300%" height="300%"><feGaussianBlur in="SourceAlpha" stdDeviation="6"></feGaussianBlur><feOffset result="offsetblur" dx="0" dy="2"></feOffset><feComponentTransfer result="s0"><feFuncA type="linear" slope="0.04"></feFuncA></feComponentTransfer><feMerge><feMergeNode in="s0"></feMergeNode><feMergeNode in="SourceGraphic"></feMergeNode></feMerge></filter><filter id="image-shadow" x="-100%" y="-100%" width="300%" height="300%"><feGaussianBlur in="SourceAlpha" stdDeviation="8"></feGaussianBlur><feOffset result="offsetblur" dx="0" dy="3"></feOffset><feComponentTransfer result="s0"><feFuncA type="linear" slope="0.06"></feFuncA></feComponentTransfer><feMerge><feMergeNode in="s0"></feMergeNode><feMergeNode in="SourceGraphic"></feMergeNode></feMerge></filter><filter id="frame-shadow" x="-100%" y="-100%" width="300%" height="300%"><feGaussianBlur in="SourceAlpha" stdDeviation="8"></feGaussianBlur><feOffset result="offsetblur" dx="0" dy="3"></feOffset><feComponentTransfer result="s0"><feFuncA type="linear" slope="0.06"></feFuncA></feComponentTransfer><feMerge><feMergeNode in="s0"></feMergeNode><feMergeNode in="SourceGraphic"></feMergeNode></feMerge></filter><filter id="badge-shadow" x="-100%" y="-100%" width="300%" height="300%"><feGaussianBlur in="SourceAlpha" stdDeviation="6"></feGaussianBlur><feOffset result="offsetblur" dx="0" dy="2"></feOffset><feComponentTransfer result="s0"><feFuncA type="linear" slope="0.08"></feFuncA></feComponentTransfer><feMerge><feMergeNode in="s0"></feMergeNode><feMergeNode in="SourceGraphic"></feMergeNode></feMerge></filter></defs><g><g><rect x="5916" y="-684" width="1032" height="1130" rx="3" ry="3" fill="#cfeeeb"></rect><rect y="-684" stroke-dasharray="5, 8" rx="3" stroke="#1AAE9F" fill="none" stroke-linejoin="round" width="1032" stroke-dashoffset="7" stroke-linecap="round" stroke-width="2" x="5916" ry="3" height="1130"></rect><g><g><g><g><g><g><g><text fill="#293845"><g><g></g></g><g></g><tspan x="6143.5" y="-644.5" font-family="DIN Next, sans-serif" font-size="27" font-style="normal" font-weight="bold">A Radix Style Multi-Component NFT Marketplace</tspan></text></g></g></g></g></g></g></g></g><g><g><text y="-502" font-style="normal" font-size="18" font-weight="normal" fill="#293845" width="0" xml:space="preserve" x="6109" font-family="DIN Next, sans-serif" height="24"><tspan x="6109" y="-484" text-anchor="start" style="white-space:pre;"></tspan></text></g><g><g><g transform="translate(6000 266) rotate(0 48 48)"><svg id="s0995639f-a43d-4caf-b907-a7ff5c167cea" width="96" height="96" viewBox="0 0 48 48" data-icon-name="single-05" data-icon-partition="c48-8"><g><path fill-rule="evenodd" clip-rule="evenodd" fill="#335262" d="M43.2495117,37.7966309L30,32V22H18v10l-0.124939,0.062439 l-13.12146,5.7341919C3.2328491,38.4612427,2,40.3496704,2,42.0092163v2.987854C2,45.5509644,2.4498291,46,3.001709,46h41.9966431 C45.5515747,46,46,45.5621338,46,44.9970703v-2.987854C46,40.34729,44.7710571,38.4623413,43.2495117,37.7966309z"></path><path fill="#5A7A84" d="M24,28c-6.0654297,0-11-4.9345703-11-11v-4c0-6.0654297,4.9345703-11,11-11s11,4.9345703,11,11v4 C35,23.0654297,30.0654297,28,24,28z"></path></g></svg></g></g></g><g><g><g transform="translate(6000 -526) rotate(0 48 48)"><svg id="sd837e953-1b7f-4aff-b900-14a17df7502b" width="96" height="96" viewBox="0 0 48 48" data-icon-name="single-05" data-icon-partition="c48-8"><g><path fill-rule="evenodd" clip-rule="evenodd" fill="#335262" d="M43.2495117,37.7966309L30,32V22H18v10l-0.124939,0.062439 l-13.12146,5.7341919C3.2328491,38.4612427,2,40.3496704,2,42.0092163v2.987854C2,45.5509644,2.4498291,46,3.001709,46h41.9966431 C45.5515747,46,46,45.5621338,46,44.9970703v-2.987854C46,40.34729,44.7710571,38.4623413,43.2495117,37.7966309z"></path><path fill="#5A7A84" d="M24,28c-6.0654297,0-11-4.9345703-11-11v-4c0-6.0654297,4.9345703-11,11-11s11,4.9345703,11,11v4 C35,23.0654297,30.0654297,28,24,28z"></path></g></svg></g></g></g><g><g><g transform="translate(6000 -262) rotate(0 48 48)"><svg id="sdafd0208-b7a6-4ab4-9d5d-4e4f37a523a9" width="96" height="96" viewBox="0 0 48 48" data-icon-name="single-05" data-icon-partition="c48-8"><g><path fill-rule="evenodd" clip-rule="evenodd" fill="#335262" d="M43.2495117,37.7966309L30,32V22H18v10l-0.124939,0.062439 l-13.12146,5.7341919C3.2328491,38.4612427,2,40.3496704,2,42.0092163v2.987854C2,45.5509644,2.4498291,46,3.001709,46h41.9966431 C45.5515747,46,46,45.5621338,46,44.9970703v-2.987854C46,40.34729,44.7710571,38.4623413,43.2495117,37.7966309z"></path><path fill="#5A7A84" d="M24,28c-6.0654297,0-11-4.9345703-11-11v-4c0-6.0654297,4.9345703-11,11-11s11,4.9345703,11,11v4 C35,23.0654297,30.0654297,28,24,28z"></path></g></svg></g></g></g><g><text y="-562" font-style="normal" font-size="21" font-weight="bold" fill="#293845" width="66" xml:space="preserve" x="6015" font-family="DIN Next, sans-serif" height="28"><tspan x="6048" y="-541" text-anchor="middle" style="white-space:pre;">Buyers</tspan></text></g><g><g><g transform="translate(6000 -130) rotate(0 48 48)"><svg id="s587dac8a-04d0-4a1a-865b-5641aa90d97d" width="96" height="96" viewBox="0 0 48 48" data-icon-name="single-05" data-icon-partition="c48-8"><g><path fill-rule="evenodd" clip-rule="evenodd" fill="#335262" d="M43.2495117,37.7966309L30,32V22H18v10l-0.124939,0.062439 l-13.12146,5.7341919C3.2328491,38.4612427,2,40.3496704,2,42.0092163v2.987854C2,45.5509644,2.4498291,46,3.001709,46h41.9966431 C45.5515747,46,46,45.5621338,46,44.9970703v-2.987854C46,40.34729,44.7710571,38.4623413,43.2495117,37.7966309z"></path><path fill="#5A7A84" d="M24,28c-6.0654297,0-11-4.9345703-11-11v-4c0-6.0654297,4.9345703-11,11-11s11,4.9345703,11,11v4 C35,23.0654297,30.0654297,28,24,28z"></path></g></svg></g></g></g><g><g><g transform="translate(6000 2) rotate(0 48 48)"><svg id="s03c4f62f-5b9d-4bab-8c36-3becbb8400a3" width="96" height="96" viewBox="0 0 48 48" data-icon-name="single-05" data-icon-partition="c48-8"><g><path fill-rule="evenodd" clip-rule="evenodd" fill="#335262" d="M43.2495117,37.7966309L30,32V22H18v10l-0.124939,0.062439 l-13.12146,5.7341919C3.2328491,38.4612427,2,40.3496704,2,42.0092163v2.987854C2,45.5509644,2.4498291,46,3.001709,46h41.9966431 C45.5515747,46,46,45.5621338,46,44.9970703v-2.987854C46,40.34729,44.7710571,38.4623413,43.2495117,37.7966309z"></path><path fill="#5A7A84" d="M24,28c-6.0654297,0-11-4.9345703-11-11v-4c0-6.0654297,4.9345703-11,11-11s11,4.9345703,11,11v4 C35,23.0654297,30.0654297,28,24,28z"></path></g></svg></g></g></g><g><g><g transform="translate(6000 -394) rotate(0 48 48)"><svg id="s4995fc05-63b0-4cc9-94fe-940406e11fca" width="96" height="96" viewBox="0 0 48 48" data-icon-name="single-05" data-icon-partition="c48-8"><g><path fill-rule="evenodd" clip-rule="evenodd" fill="#335262" d="M43.2495117,37.7966309L30,32V22H18v10l-0.124939,0.062439 l-13.12146,5.7341919C3.2328491,38.4612427,2,40.3496704,2,42.0092163v2.987854C2,45.5509644,2.4498291,46,3.001709,46h41.9966431 C45.5515747,46,46,45.5621338,46,44.9970703v-2.987854C46,40.34729,44.7710571,38.4623413,43.2495117,37.7966309z"></path><path fill="#5A7A84" d="M24,28c-6.0654297,0-11-4.9345703-11-11v-4c0-6.0654297,4.9345703-11,11-11s11,4.9345703,11,11v4 C35,23.0654297,30.0654297,28,24,28z"></path></g></svg></g></g></g><g><g><g transform="translate(6000 134) rotate(0 48 48)"><svg id="sdae3ce35-0305-4e59-aa43-961976c9b36b" width="96" height="96" viewBox="0 0 48 48" data-icon-name="single-05" data-icon-partition="c48-8"><g><path fill-rule="evenodd" clip-rule="evenodd" fill="#335262" d="M43.2495117,37.7966309L30,32V22H18v10l-0.124939,0.062439 l-13.12146,5.7341919C3.2328491,38.4612427,2,40.3496704,2,42.0092163v2.987854C2,45.5509644,2.4498291,46,3.001709,46h41.9966431 C45.5515747,46,46,45.5621338,46,44.9970703v-2.987854C46,40.34729,44.7710571,38.4623413,43.2495117,37.7966309z"></path><path fill="#5A7A84" d="M24,28c-6.0654297,0-11-4.9345703-11-11v-4c0-6.0654297,4.9345703-11,11-11s11,4.9345703,11,11v4 C35,23.0654297,30.0654297,28,24,28z"></path></g></svg></g></g></g><g><g><g transform="translate(6600 -460) rotate(0 48 48)"><svg id="sd85e32d3-7687-4aa0-aa22-0065ee92fde1" width="96" height="96" viewBox="0 0 64 64" data-icon-name="bank-statement" data-icon-partition="g64-13" data-icon-color="#4B5C6B"><style>#sd85e32d3-7687-4aa0-aa22-0065ee92fde1 *[fill=&#x27;#444444&#x27;], #sd85e32d3-7687-4aa0-aa22-0065ee92fde1 *[fill=&#x27;#444&#x27;] {fill:#4B5C6B;}#sd85e32d3-7687-4aa0-aa22-0065ee92fde1 *[stroke=&#x27;#444444&#x27;], #sd85e32d3-7687-4aa0-aa22-0065ee92fde1 *[stroke=&#x27;#444&#x27;] {stroke:#4B5C6B;}</style><g><path d="M53,2H11A4,4,0,0,0,7,6V58a4,4,0,0,0,4,4H53a4,4,0,0,0,4-4V6A4,4,0,0,0,53,2ZM32,53H17a1,1,0,0,1,0-2H32a1,1,0,0,1,0,2Zm15-7H17a1,1,0,0,1,0-2H47a1,1,0,0,1,0,2Zm0-7H17a1,1,0,0,1,0-2H47a1,1,0,0,1,0,2Zm0-8H25a1,1,0,0,1,0-2h1V21h2v8h4V21h2v8h4V21h2v8h4V21h2v8h1a1,1,0,0,1,0,2Zm1-13a1,1,0,0,1-1,1H25a1,1,0,0,1-1-1V17a1,1,0,0,1,.463-.843l11-7a1,1,0,0,1,1.074,0l11,7A1,1,0,0,1,48,17Z" fill="#444"></path></g></svg></g></g></g><g><text y="-576" font-style="normal" font-size="21" font-weight="bold" fill="#293845" width="139" xml:space="preserve" x="6578" font-family="DIN Next, sans-serif" height="56"><tspan x="6647.5" y="-555" text-anchor="middle" style="white-space:pre;">Individual Sale</tspan><tspan x="6647.5" y="-527" text-anchor="middle" style="white-space:pre;">Components</tspan></text></g><g><g><g transform="translate(6600 -130) rotate(0 48 48)"><svg id="s1c1203c0-98b4-44af-9089-bc8c1d81b346" width="96" height="96" viewBox="0 0 64 64" data-icon-name="bank-statement" data-icon-partition="g64-13" data-icon-color="#4B5C6B"><style>#s1c1203c0-98b4-44af-9089-bc8c1d81b346 *[fill=&#x27;#444444&#x27;], #s1c1203c0-98b4-44af-9089-bc8c1d81b346 *[fill=&#x27;#444&#x27;] {fill:#4B5C6B;}#s1c1203c0-98b4-44af-9089-bc8c1d81b346 *[stroke=&#x27;#444444&#x27;], #s1c1203c0-98b4-44af-9089-bc8c1d81b346 *[stroke=&#x27;#444&#x27;] {stroke:#4B5C6B;}</style><g><path d="M53,2H11A4,4,0,0,0,7,6V58a4,4,0,0,0,4,4H53a4,4,0,0,0,4-4V6A4,4,0,0,0,53,2ZM32,53H17a1,1,0,0,1,0-2H32a1,1,0,0,1,0,2Zm15-7H17a1,1,0,0,1,0-2H47a1,1,0,0,1,0,2Zm0-7H17a1,1,0,0,1,0-2H47a1,1,0,0,1,0,2Zm0-8H25a1,1,0,0,1,0-2h1V21h2v8h4V21h2v8h4V21h2v8h4V21h2v8h1a1,1,0,0,1,0,2Zm1-13a1,1,0,0,1-1,1H25a1,1,0,0,1-1-1V17a1,1,0,0,1,.463-.843l11-7a1,1,0,0,1,1.074,0l11,7A1,1,0,0,1,48,17Z" fill="#444"></path></g></svg></g></g></g><g><text y="-502" font-style="normal" font-size="18" font-weight="normal" fill="#293845" width="0" xml:space="preserve" x="6109" font-family="DIN Next, sans-serif" height="24"><tspan x="6109" y="-484" text-anchor="start" style="white-space:pre;"></tspan></text></g><g><g><path d="M6104,-478h253c8.28426,0 15,6.71574 15,15v36c0,8.28426 6.71574,15 15,15h192" fill="none" stroke="#788896" stroke-linecap="round" stroke-linejoin="round" stroke-width="4"></path><polygon points="6575.9079,-417.54095 6583,-412 6575.9079,-406.45905" fill="#788896" stroke="#788896" stroke-width="2" stroke-linecap="round" stroke-linejoin="round"></polygon></g></g><g><g><path d="M6104,-346h253c8.28426,0 15,-6.71574 15,-15v-36c0,-8.28426 6.71574,-15 15,-15h192" fill="none" stroke="#788896" stroke-linecap="round" stroke-linejoin="round" stroke-width="4"></path><polygon points="6575.9079,-417.54095 6583,-412 6575.9079,-406.45905" fill="#788896" stroke="#788896" stroke-width="2" stroke-linecap="round" stroke-linejoin="round"></polygon></g></g><g><text y="-502" font-style="normal" font-size="15" font-weight="normal" fill="#293845" width="165" xml:space="preserve" x="6109" font-family="DIN Next, sans-serif" height="20"><tspan x="6109" y="-487" text-anchor="start" style="white-space:pre;">I want to buy BAYC #5312</tspan></text></g><g><text y="-372" font-style="normal" font-size="15" font-weight="normal" fill="#293845" width="165" xml:space="preserve" x="6109" font-family="DIN Next, sans-serif" height="20"><tspan x="6109" y="-357" text-anchor="start" style="white-space:pre;">I want to buy BAYC #5312</tspan></text></g><g><g><path d="M6104,-214h250.72736c8.28426,0 15,6.71574 15,15v102c0,8.28426 6.71574,15 15,15h203.27264" fill="none" stroke="#788896" stroke-linecap="round" stroke-linejoin="round" stroke-width="4"></path><polygon points="6584.9079,-87.54095 6592,-82 6584.9079,-76.45905" fill="#788896" stroke="#788896" stroke-width="2" stroke-linecap="round" stroke-linejoin="round"></polygon></g></g><g><g><line stroke="#788896" fill="none" stroke-linejoin="round" y1="-81.99999999999999" stroke-linecap="round" stroke-width="4" x1="6103.999999999998" y2="-82" x2="6588.000000000002"></line><polygon points="6584.9079,-87.54095 6592,-82 6584.9079,-76.45905" fill="#788896" stroke="#788896" stroke-width="2" stroke-linecap="round" stroke-linejoin="round"></polygon></g></g><g><g><path d="M6104,50h250.72736c8.28426,0 15,-6.71574 15,-15v-102c0,-8.28426 6.71574,-15 15,-15h203.27264" fill="none" stroke="#788896" stroke-linecap="round" stroke-linejoin="round" stroke-width="4"></path><polygon points="6584.9079,-87.54095 6592,-82 6584.9079,-76.45905" fill="#788896" stroke="#788896" stroke-width="2" stroke-linecap="round" stroke-linejoin="round"></polygon></g></g><g><text y="-240" font-style="normal" font-size="15" font-weight="normal" fill="#293845" width="251" xml:space="preserve" x="6109" font-family="DIN Next, sans-serif" height="20"><tspan x="6109" y="-225" text-anchor="start" style="white-space:pre;">Bid 10k XRD in Doodles #3912 auction </tspan></text></g><g><text y="-108" font-style="normal" font-size="15" font-weight="normal" fill="#293845" width="251" xml:space="preserve" x="6109" font-family="DIN Next, sans-serif" height="20"><tspan x="6109" y="-93" text-anchor="start" style="white-space:pre;">Bid 12k XRD in Doodles #3912 auction </tspan></text></g><g><text y="24" font-style="normal" font-size="15" font-weight="normal" fill="#293845" width="251" xml:space="preserve" x="6109" font-family="DIN Next, sans-serif" height="20"><tspan x="6109" y="39" text-anchor="start" style="white-space:pre;">Bid 20k XRD in Doodles #3912 auction </tspan></text></g><g><g><g transform="translate(6600 134) rotate(0 48 48)"><svg id="s572c5677-6992-4cbb-b218-2328bdaa2fd2" width="96" height="96" viewBox="0 0 64 64" data-icon-name="bank-statement" data-icon-partition="g64-13" data-icon-color="#4B5C6B"><style>#s572c5677-6992-4cbb-b218-2328bdaa2fd2 *[fill=&#x27;#444444&#x27;], #s572c5677-6992-4cbb-b218-2328bdaa2fd2 *[fill=&#x27;#444&#x27;] {fill:#4B5C6B;}#s572c5677-6992-4cbb-b218-2328bdaa2fd2 *[stroke=&#x27;#444444&#x27;], #s572c5677-6992-4cbb-b218-2328bdaa2fd2 *[stroke=&#x27;#444&#x27;] {stroke:#4B5C6B;}</style><g><path d="M53,2H11A4,4,0,0,0,7,6V58a4,4,0,0,0,4,4H53a4,4,0,0,0,4-4V6A4,4,0,0,0,53,2ZM32,53H17a1,1,0,0,1,0-2H32a1,1,0,0,1,0,2Zm15-7H17a1,1,0,0,1,0-2H47a1,1,0,0,1,0,2Zm0-7H17a1,1,0,0,1,0-2H47a1,1,0,0,1,0,2Zm0-8H25a1,1,0,0,1,0-2h1V21h2v8h4V21h2v8h4V21h2v8h4V21h2v8h1a1,1,0,0,1,0,2Zm1-13a1,1,0,0,1-1,1H25a1,1,0,0,1-1-1V17a1,1,0,0,1,.463-.843l11-7a1,1,0,0,1,1.074,0l11,7A1,1,0,0,1,48,17Z" fill="#444"></path></g></svg></g></g></g><g><g><g transform="translate(6600 266) rotate(0 48 48)"><svg id="sa84ac30b-5e97-4621-b2c5-65def360dc92" width="96" height="96" viewBox="0 0 64 64" data-icon-name="bank-statement" data-icon-partition="g64-13" data-icon-color="#4B5C6B"><style>#sa84ac30b-5e97-4621-b2c5-65def360dc92 *[fill=&#x27;#444444&#x27;], #sa84ac30b-5e97-4621-b2c5-65def360dc92 *[fill=&#x27;#444&#x27;] {fill:#4B5C6B;}#sa84ac30b-5e97-4621-b2c5-65def360dc92 *[stroke=&#x27;#444444&#x27;], #sa84ac30b-5e97-4621-b2c5-65def360dc92 *[stroke=&#x27;#444&#x27;] {stroke:#4B5C6B;}</style><g><path d="M53,2H11A4,4,0,0,0,7,6V58a4,4,0,0,0,4,4H53a4,4,0,0,0,4-4V6A4,4,0,0,0,53,2ZM32,53H17a1,1,0,0,1,0-2H32a1,1,0,0,1,0,2Zm15-7H17a1,1,0,0,1,0-2H47a1,1,0,0,1,0,2Zm0-7H17a1,1,0,0,1,0-2H47a1,1,0,0,1,0,2Zm0-8H25a1,1,0,0,1,0-2h1V21h2v8h4V21h2v8h4V21h2v8h4V21h2v8h1a1,1,0,0,1,0,2Zm1-13a1,1,0,0,1-1,1H25a1,1,0,0,1-1-1V17a1,1,0,0,1,.463-.843l11-7a1,1,0,0,1,1.074,0l11,7A1,1,0,0,1,48,17Z" fill="#444"></path></g></svg></g></g></g><g><g><line stroke="#788896" fill="none" stroke-linejoin="round" y1="314" stroke-linecap="round" stroke-width="4" x1="6104.000000000001" y2="314" x2="6588.000000000008"></line><polygon points="6584.9079,308.45905 6592,314 6584.9079,319.54095" fill="#788896" stroke="#788896" stroke-width="2" stroke-linecap="round" stroke-linejoin="round"></polygon></g></g><g><text y="158" font-style="normal" font-size="15" font-weight="normal" fill="#293845" width="217" xml:space="preserve" x="6109" font-family="DIN Next, sans-serif" height="20"><tspan x="6109" y="173" text-anchor="start" style="white-space:pre;">I want to buy Crypto Punks #2913</tspan></text></g><g><text y="290" font-style="normal" font-size="15" font-weight="normal" fill="#293845" width="192" xml:space="preserve" x="6109" font-family="DIN Next, sans-serif" height="20"><tspan x="6109" y="305" text-anchor="start" style="white-space:pre;">I want to buy Cool Cats #6482</tspan></text></g><g><text y="-436" font-style="normal" font-size="18" font-weight="bold" fill="#293845" width="168" xml:space="preserve" x="6696" font-family="DIN Next, sans-serif" height="48"><tspan x="6696" y="-418" text-anchor="start" style="white-space:pre;">BAYC #5312</tspan><tspan x="6696" y="-394" text-anchor="start" style="white-space:pre;">Fixed Price Sale</tspan></text></g><g><text y="-106" font-style="normal" font-size="18" font-weight="bold" fill="#293845" width="168" xml:space="preserve" x="6696" font-family="DIN Next, sans-serif" height="48"><tspan x="6696" y="-88" text-anchor="start" style="white-space:pre;">Doodles #3912</tspan><tspan x="6696" y="-64" text-anchor="start" style="white-space:pre;">English Auction</tspan></text></g><g><text y="158" font-style="normal" font-size="18" font-weight="bold" fill="#293845" width="168" xml:space="preserve" x="6696" font-family="DIN Next, sans-serif" height="48"><tspan x="6696" y="176" text-anchor="start" style="white-space:pre;">Crypto Punks #2913</tspan><tspan x="6696" y="200" text-anchor="start" style="white-space:pre;">Dutch Auction</tspan></text></g><g><text y="290" font-style="normal" font-size="18" font-weight="bold" fill="#293845" width="168" xml:space="preserve" x="6696" font-family="DIN Next, sans-serif" height="48"><tspan x="6696" y="308" text-anchor="start" style="white-space:pre;">Cool Cats #6482</tspan><tspan x="6696" y="332" text-anchor="start" style="white-space:pre;">Fixed Price Sale</tspan></text></g><g><g><line stroke="#788896" fill="none" stroke-linejoin="round" y1="182" stroke-linecap="round" stroke-width="4" x1="6104.000000000002" y2="182" x2="6588.000000000003"></line><polygon points="6584.9079,176.45905 6592,182 6584.9079,187.54095" fill="#788896" stroke="#788896" stroke-width="2" stroke-linecap="round" stroke-linejoin="round"></polygon></g></g></g></g><g><g><rect x="4872" y="-684" width="876" height="1130" rx="3" ry="3" fill="#cfeeeb"></rect><rect y="-684" stroke-dasharray="5, 8" rx="3" stroke="#1AAE9F" fill="none" stroke-linejoin="round" width="876" stroke-dashoffset="7" stroke-linecap="round" stroke-width="2" x="4872" ry="3" height="1130"></rect><g><g><g><g><g><g><g><text fill="#293845"><g><g></g></g><g></g><tspan x="4955.5" y="-644.5" font-family="DIN Next, sans-serif" font-size="27" font-style="normal" font-weight="bold">An Ethereum Style NFT Marketplace with One Main Contract</tspan></text></g></g></g></g></g></g></g></g><g><g><text y="-562" font-style="normal" font-size="21" font-weight="bold" fill="#293845" width="66" xml:space="preserve" x="4971" font-family="DIN Next, sans-serif" height="28"><tspan x="5004" y="-541" text-anchor="middle" style="white-space:pre;">Buyers</tspan></text></g><g><g><g transform="translate(4956 -526) rotate(0 48 48)"><svg id="sed98d076-9aa0-4267-9473-0b1e161ce2a3" width="96" height="96" viewBox="0 0 48 48" data-icon-name="single-05" data-icon-partition="c48-8"><g><path fill-rule="evenodd" clip-rule="evenodd" fill="#335262" d="M43.2495117,37.7966309L30,32V22H18v10l-0.124939,0.062439 l-13.12146,5.7341919C3.2328491,38.4612427,2,40.3496704,2,42.0092163v2.987854C2,45.5509644,2.4498291,46,3.001709,46h41.9966431 C45.5515747,46,46,45.5621338,46,44.9970703v-2.987854C46,40.34729,44.7710571,38.4623413,43.2495117,37.7966309z"></path><path fill="#5A7A84" d="M24,28c-6.0654297,0-11-4.9345703-11-11v-4c0-6.0654297,4.9345703-11,11-11s11,4.9345703,11,11v4 C35,23.0654297,30.0654297,28,24,28z"></path></g></svg></g></g></g><g><g><path d="M5060,-478h265.7758c8.28426,0 15,6.71574 15,15v366c0,8.28426 6.71574,15 15,15h188.2242" fill="none" stroke="#788896" stroke-linecap="round" stroke-linejoin="round" stroke-width="4"></path><polygon points="5540.9079,-87.54095 5548,-82 5540.9079,-76.45905" fill="#788896" stroke="#788896" stroke-width="2" stroke-linecap="round" stroke-linejoin="round"></polygon></g></g><g><text y="-504" font-style="normal" font-size="15" font-weight="normal" fill="#293845" width="165" xml:space="preserve" x="5064" font-family="DIN Next, sans-serif" height="20"><tspan x="5064" y="-489" text-anchor="start" style="white-space:pre;">I want to buy BAYC #5312</tspan></text></g><g><text y="-502" font-style="normal" font-size="18" font-weight="normal" fill="#293845" width="0" xml:space="preserve" x="5065" font-family="DIN Next, sans-serif" height="24"><tspan x="5065" y="-484" text-anchor="start" style="white-space:pre;"></tspan></text></g><g><g><g transform="translate(4956 -394) rotate(0 48 48)"><svg id="sf5ccf09a-45d1-4a87-be0f-69a21449d6d1" width="96" height="96" viewBox="0 0 48 48" data-icon-name="single-05" data-icon-partition="c48-8"><g><path fill-rule="evenodd" clip-rule="evenodd" fill="#335262" d="M43.2495117,37.7966309L30,32V22H18v10l-0.124939,0.062439 l-13.12146,5.7341919C3.2328491,38.4612427,2,40.3496704,2,42.0092163v2.987854C2,45.5509644,2.4498291,46,3.001709,46h41.9966431 C45.5515747,46,46,45.5621338,46,44.9970703v-2.987854C46,40.34729,44.7710571,38.4623413,43.2495117,37.7966309z"></path><path fill="#5A7A84" d="M24,28c-6.0654297,0-11-4.9345703-11-11v-4c0-6.0654297,4.9345703-11,11-11s11,4.9345703,11,11v4 C35,23.0654297,30.0654297,28,24,28z"></path></g></svg></g></g></g><g><g><path d="M5060,-346h265.7758c8.28426,0 15,6.71574 15,15v234c0,8.28426 6.71574,15 15,15h188.2242" fill="none" stroke="#788896" stroke-linecap="round" stroke-linejoin="round" stroke-width="4"></path><polygon points="5540.9079,-87.54095 5548,-82 5540.9079,-76.45905" fill="#788896" stroke="#788896" stroke-width="2" stroke-linecap="round" stroke-linejoin="round"></polygon></g></g><g><text y="-372" font-style="normal" font-size="15" font-weight="normal" fill="#293845" width="165" xml:space="preserve" x="5064" font-family="DIN Next, sans-serif" height="20"><tspan x="5064" y="-357" text-anchor="start" style="white-space:pre;">I want to buy BAYC #5321</tspan></text></g><g><g><g transform="translate(4956 -262) rotate(0 48 48)"><svg id="s39a892a6-dd75-4385-ace0-0bdec1c0d201" width="96" height="96" viewBox="0 0 48 48" data-icon-name="single-05" data-icon-partition="c48-8"><g><path fill-rule="evenodd" clip-rule="evenodd" fill="#335262" d="M43.2495117,37.7966309L30,32V22H18v10l-0.124939,0.062439 l-13.12146,5.7341919C3.2328491,38.4612427,2,40.3496704,2,42.0092163v2.987854C2,45.5509644,2.4498291,46,3.001709,46h41.9966431 C45.5515747,46,46,45.5621338,46,44.9970703v-2.987854C46,40.34729,44.7710571,38.4623413,43.2495117,37.7966309z"></path><path fill="#5A7A84" d="M24,28c-6.0654297,0-11-4.9345703-11-11v-4c0-6.0654297,4.9345703-11,11-11s11,4.9345703,11,11v4 C35,23.0654297,30.0654297,28,24,28z"></path></g></svg></g></g></g><g><g><path d="M5060,-214h265.7758c8.28426,0 15,6.71574 15,15v102c0,8.28426 6.71574,15 15,15h188.2242" fill="none" stroke="#788896" stroke-linecap="round" stroke-linejoin="round" stroke-width="4"></path><polygon points="5540.9079,-87.54095 5548,-82 5540.9079,-76.45905" fill="#788896" stroke="#788896" stroke-width="2" stroke-linecap="round" stroke-linejoin="round"></polygon></g></g><g><text y="-240" font-style="normal" font-size="15" font-weight="normal" fill="#293845" width="251" xml:space="preserve" x="5064" font-family="DIN Next, sans-serif" height="20"><tspan x="5064" y="-225" text-anchor="start" style="white-space:pre;">Bid 10k XRD in Doodles #3912 auction </tspan></text></g><g><text y="-192" font-style="normal" font-size="21" font-weight="bold" fill="#293845" width="115" xml:space="preserve" x="5547" font-family="DIN Next, sans-serif" height="56"><tspan x="5604.5" y="-171" text-anchor="middle" style="white-space:pre;">Marketplace</tspan><tspan x="5604.5" y="-143" text-anchor="middle" style="white-space:pre;">Contract</tspan></text></g><g><g><g transform="translate(4956 -130) rotate(0 48 48)"><svg id="scf0cf966-7511-4c83-9f24-7e5d5ec5ea34" width="96" height="96" viewBox="0 0 48 48" data-icon-name="single-05" data-icon-partition="c48-8"><g><path fill-rule="evenodd" clip-rule="evenodd" fill="#335262" d="M43.2495117,37.7966309L30,32V22H18v10l-0.124939,0.062439 l-13.12146,5.7341919C3.2328491,38.4612427,2,40.3496704,2,42.0092163v2.987854C2,45.5509644,2.4498291,46,3.001709,46h41.9966431 C45.5515747,46,46,45.5621338,46,44.9970703v-2.987854C46,40.34729,44.7710571,38.4623413,43.2495117,37.7966309z"></path><path fill="#5A7A84" d="M24,28c-6.0654297,0-11-4.9345703-11-11v-4c0-6.0654297,4.9345703-11,11-11s11,4.9345703,11,11v4 C35,23.0654297,30.0654297,28,24,28z"></path></g></svg></g></g></g><g><g><g transform="translate(5556 -130) rotate(0 48 48)"><svg id="s6d0c809b-ba71-4d2e-baee-db2b8382b319" width="96" height="96" viewBox="0 0 64 64" data-icon-name="bank-statement" data-icon-partition="g64-13" data-icon-color="#4B5C6B"><style>#s6d0c809b-ba71-4d2e-baee-db2b8382b319 *[fill=&#x27;#444444&#x27;], #s6d0c809b-ba71-4d2e-baee-db2b8382b319 *[fill=&#x27;#444&#x27;] {fill:#4B5C6B;}#s6d0c809b-ba71-4d2e-baee-db2b8382b319 *[stroke=&#x27;#444444&#x27;], #s6d0c809b-ba71-4d2e-baee-db2b8382b319 *[stroke=&#x27;#444&#x27;] {stroke:#4B5C6B;}</style><g><path d="M53,2H11A4,4,0,0,0,7,6V58a4,4,0,0,0,4,4H53a4,4,0,0,0,4-4V6A4,4,0,0,0,53,2ZM32,53H17a1,1,0,0,1,0-2H32a1,1,0,0,1,0,2Zm15-7H17a1,1,0,0,1,0-2H47a1,1,0,0,1,0,2Zm0-7H17a1,1,0,0,1,0-2H47a1,1,0,0,1,0,2Zm0-8H25a1,1,0,0,1,0-2h1V21h2v8h4V21h2v8h4V21h2v8h4V21h2v8h1a1,1,0,0,1,0,2Zm1-13a1,1,0,0,1-1,1H25a1,1,0,0,1-1-1V17a1,1,0,0,1,.463-.843l11-7a1,1,0,0,1,1.074,0l11,7A1,1,0,0,1,48,17Z" fill="#444"></path></g></svg></g></g></g><g><g><path d="M5060,314h265.7758c8.28426,0 15,-6.71574 15,-15v-366c0,-8.28426 6.71574,-15 15,-15h188.2242" fill="none" stroke="#788896" stroke-linecap="round" stroke-linejoin="round" stroke-width="4"></path><polygon points="5540.9079,-87.54095 5548,-82 5540.9079,-76.45905" fill="#788896" stroke="#788896" stroke-width="2" stroke-linecap="round" stroke-linejoin="round"></polygon></g></g><g><g><line stroke="#788896" fill="none" stroke-linejoin="round" y1="-82" stroke-linecap="round" stroke-width="4" x1="5060.000000000001" y2="-82" x2="5544.000000000008"></line><polygon points="5540.9079,-87.54095 5548,-82 5540.9079,-76.45905" fill="#788896" stroke="#788896" stroke-width="2" stroke-linecap="round" stroke-linejoin="round"></polygon></g></g><g><g><path d="M5060,50h265.7758c8.28426,0 15,-6.71574 15,-15v-102c0,-8.28426 6.71574,-15 15,-15h188.2242" fill="none" stroke="#788896" stroke-linecap="round" stroke-linejoin="round" stroke-width="4"></path><polygon points="5540.9079,-87.54095 5548,-82 5540.9079,-76.45905" fill="#788896" stroke="#788896" stroke-width="2" stroke-linecap="round" stroke-linejoin="round"></polygon></g></g><g><g><path d="M5060,182h265.7758c8.28426,0 15,-6.71574 15,-15v-234c0,-8.28426 6.71574,-15 15,-15h188.2242" fill="none" stroke="#788896" stroke-linecap="round" stroke-linejoin="round" stroke-width="4"></path><polygon points="5540.9079,-87.54095 5548,-82 5540.9079,-76.45905" fill="#788896" stroke="#788896" stroke-width="2" stroke-linecap="round" stroke-linejoin="round"></polygon></g></g><g><text y="-108" font-style="normal" font-size="15" font-weight="normal" fill="#293845" width="251" xml:space="preserve" x="5064" font-family="DIN Next, sans-serif" height="20"><tspan x="5064" y="-93" text-anchor="start" style="white-space:pre;">Bid 12k XRD in Doodles #3912 auction </tspan></text></g><g><g><g transform="translate(4956 2) rotate(0 48 48)"><svg id="s9284fb05-3b18-4fd9-9b59-b73655b38104" width="96" height="96" viewBox="0 0 48 48" data-icon-name="single-05" data-icon-partition="c48-8"><g><path fill-rule="evenodd" clip-rule="evenodd" fill="#335262" d="M43.2495117,37.7966309L30,32V22H18v10l-0.124939,0.062439 l-13.12146,5.7341919C3.2328491,38.4612427,2,40.3496704,2,42.0092163v2.987854C2,45.5509644,2.4498291,46,3.001709,46h41.9966431 C45.5515747,46,46,45.5621338,46,44.9970703v-2.987854C46,40.34729,44.7710571,38.4623413,43.2495117,37.7966309z"></path><path fill="#5A7A84" d="M24,28c-6.0654297,0-11-4.9345703-11-11v-4c0-6.0654297,4.9345703-11,11-11s11,4.9345703,11,11v4 C35,23.0654297,30.0654297,28,24,28z"></path></g></svg></g></g></g><g><text y="24" font-style="normal" font-size="15" font-weight="normal" fill="#293845" width="251" xml:space="preserve" x="5064" font-family="DIN Next, sans-serif" height="20"><tspan x="5064" y="39" text-anchor="start" style="white-space:pre;">Bid 20k XRD in Doodles #3912 auction </tspan></text></g><g><g><g transform="translate(4956 134) rotate(0 48 48)"><svg id="s76b3dbbc-d152-4cd2-a3ec-5127463d94a8" width="96" height="96" viewBox="0 0 48 48" data-icon-name="single-05" data-icon-partition="c48-8"><g><path fill-rule="evenodd" clip-rule="evenodd" fill="#335262" d="M43.2495117,37.7966309L30,32V22H18v10l-0.124939,0.062439 l-13.12146,5.7341919C3.2328491,38.4612427,2,40.3496704,2,42.0092163v2.987854C2,45.5509644,2.4498291,46,3.001709,46h41.9966431 C45.5515747,46,46,45.5621338,46,44.9970703v-2.987854C46,40.34729,44.7710571,38.4623413,43.2495117,37.7966309z"></path><path fill="#5A7A84" d="M24,28c-6.0654297,0-11-4.9345703-11-11v-4c0-6.0654297,4.9345703-11,11-11s11,4.9345703,11,11v4 C35,23.0654297,30.0654297,28,24,28z"></path></g></svg></g></g></g><g><text y="156" font-style="normal" font-size="15" font-weight="normal" fill="#293845" width="217" xml:space="preserve" x="5064" font-family="DIN Next, sans-serif" height="20"><tspan x="5064" y="171" text-anchor="start" style="white-space:pre;">I want to buy Crypto Punks #2913</tspan></text></g><g><g><g transform="translate(4956 266) rotate(0 48 48)"><svg id="s21e180a6-cf11-4a9c-8990-4d8cc13851b2" width="96" height="96" viewBox="0 0 48 48" data-icon-name="single-05" data-icon-partition="c48-8"><g><path fill-rule="evenodd" clip-rule="evenodd" fill="#335262" d="M43.2495117,37.7966309L30,32V22H18v10l-0.124939,0.062439 l-13.12146,5.7341919C3.2328491,38.4612427,2,40.3496704,2,42.0092163v2.987854C2,45.5509644,2.4498291,46,3.001709,46h41.9966431 C45.5515747,46,46,45.5621338,46,44.9970703v-2.987854C46,40.34729,44.7710571,38.4623413,43.2495117,37.7966309z"></path><path fill="#5A7A84" d="M24,28c-6.0654297,0-11-4.9345703-11-11v-4c0-6.0654297,4.9345703-11,11-11s11,4.9345703,11,11v4 C35,23.0654297,30.0654297,28,24,28z"></path></g></svg></g></g></g><g><text y="288" font-style="normal" font-size="15" font-weight="normal" fill="#293845" width="192" xml:space="preserve" x="5064" font-family="DIN Next, sans-serif" height="20"><tspan x="5064" y="303" text-anchor="start" style="white-space:pre;">I want to buy Cool Cats #6482</tspan></text></g></g></g></svg>